<svg width="944" height="980" viewBox="0 0 944 980" xmlns="http://www.w3.org/2000/svg"><title>deer-horn-black-tattoo</title><g fill="none" fill-rule="evenodd"><g fill="#994352"><path d="M103.028 19.766c-15.62 16.605-19.608 22.915-25.59 44.17-7.977 27.565-6.315 34.207 6.979 25.24 4.653-2.988 10.635-5.313 13.294-5.313 3.323 0 5.65-4.982 6.979-15.941 2.659-17.934 12.63-42.51 21.27-52.141C136.596 4.157 137.26.836 129.284.836c-4.985 0-14.291 6.974-26.256 18.93zm818.244 31.218c.997 6.31 0 18.598-2.327 27.897-3.655 13.617-3.655 17.602.333 22.916 9.306 13.616 4.32 13.284-8.309-.333-15.62-16.605-33.567-27.232-33.567-19.594 0 2.657 3.988 9.3 8.64 14.28 8.974 9.632 21.271 31.219 21.271 37.197 0 1.992-1.994 2.657-4.653 1.66-3.323-1.328-5.317 1.66-6.979 9.3-2.659 12.287-13.294 40.849-27.585 72.399-5.318 11.956-11.3 29.89-13.626 39.853-9.638 42.842-26.588 69.742-57.497 90.997-62.481 43.506-67.134 45.831-71.455 39.853-8.64-11.956-2.659-100.628 9.306-137.16 3.988-11.624 8.973-24.908 11.632-29.558 6.315-12.288 2.991-13.284-8.309-2.657-20.273 19.595-38.552 71.071-46.86 132.18-6.98 51.144-11.3 61.44-37.889 87.343-12.961 12.953-28.582 25.573-34.564 27.898-13.294 5.645-13.294 9.963-.665 31.882 5.65 9.631 10.968 24.244 11.965 32.879 1.994 14.612 7.976 24.908 7.976 13.616 0-2.99 3.324-11.624 7.312-19.262 6.315-11.956 7.644-12.953 8.641-6.642 1.33 9.299 10.303 9.963 36.559 2.324 38.884-11.291 76.44-44.502 85.08-75.056 7.313-26.569 8.974-39.189 4.986-39.189-7.644 0-19.608 11.292-23.264 22.584-10.635 32.214-43.206 60.443-77.438 66.753l-14.955 2.657 8.64-10.96c8.974-11.955 55.835-52.473 72.453-62.768 5.65-3.653 16.617-11.624 24.926-18.266 8.309-6.642 23.93-17.27 34.897-23.247 25.923-14.613 71.455-60.444 95.716-96.644 10.303-15.609 18.944-29.557 18.944-30.886 0-1.328 2.991-8.634 6.315-16.273 9.638-20.923 17.947-58.119 15.953-70.407-.997-5.978-5.318-19.926-9.97-30.886-7.645-18.93-7.645-20.258-1.995-21.587 5.318-1.328 6.315-4.981 5.982-24.576-.332-25.572-5.982-47.823-12.629-50.148-3.656-1.328-4.32.996-2.991 9.631zm-11.632 96.643c-.997 2.657-1.994 1.661-1.994-1.992-.333-3.653.664-5.646 1.661-4.318.997.997 1.33 3.986.333 6.31zm-1.994 46.163c-10.303 39.853-30.577 87.013-35.23 82.031-2.658-2.325 21.27-71.735 33.235-96.643 2.992-6.975 6.315-11.956 6.98-11.292.664.664-1.662 12.288-4.985 25.904zM22.6 77.22c-.997 18.267-3.324 34.872-5.318 37.529-4.985 5.978-9.638 36.864-5.317 35.203 1.661-.664 10.302-9.299 19.276-18.93l16.285-17.27-2.327-23.58c-2.326-24.243-8.308-40.848-16.285-43.837-3.988-1.329-4.985 4.65-6.314 30.886zm123.634-1.66c-25.924 5.978-42.541 12.952-66.47 26.9-30.244 17.603-44.203 31.551-57.497 57.455-24.261 46.828-27.252 71.404-14.29 120.556 9.638 37.196 13.293 46.495 19.608 52.805 2.659 2.657 6.98 9.299 9.97 14.612 13.96 26.237 68.464 79.706 106.02 103.618 10.635 6.974 30.908 20.259 45.2 29.89 13.958 9.63 30.908 20.258 37.555 23.911 14.29 7.639 32.238 29.558 35.893 42.842 3.656 12.62 11.3 11.292 13.96-2.657 2.99-18.598 11.964-35.867 26.255-52.14 13.294-15.277 14.29-20.923 3.656-20.923-13.294 0-37.224-11.292-46.53-21.92-11.3-12.952-15.952-27.232-18.943-58.118-2.991-29.558 2.659-50.813 18.944-72.068 19.276-25.572 16.95-29.557-9.306-16.937-7.976 3.985-15.953 9.963-17.947 13.284-4.32 8.303-8.309 7.97-10.635-.664-1.994-7.638 5.982-41.846 11.3-48.156 6.314-7.638-3.656-8.634-14.956-1.328-6.98 3.985-14.623 13.284-18.944 22.251-6.647 13.949-7.312 19.927-6.98 62.104.666 48.156-1.66 59.116-13.293 66.422-17.947 11.292-94.055-52.473-116.655-97.64-10.635-21.255-10.635-22.251-10.967-71.735-.333-27.565-1.33-52.14-2.659-54.134-3.988-5.978-7.976-4.317-11.3 5.314l-3.323 9.3-.333-8.636C33.235 189.473 49.52 163.901 67.8 146.3c16.95-16.273 37.888-30.222 77.77-51.145 41.211-21.919 41.544-29.225.665-19.594z"/><path d="M84.084 144.97c-18.611 9.3-18.944 9.964-12.961 20.923 11.632 20.923 12.961 116.902 1.994 141.146-5.982 12.952-1.994 22.916 16.617 42.842 20.938 22.251 25.259 19.262 16.285-11.956-6.314-20.923-6.647-29.225-4.985-86.348 1.33-34.871 3.656-73.396 5.318-85.684 4.653-31.882 2.659-33.542-22.268-20.922zm719.204-5.977c-.997 1.992-.665 5.313 1.33 7.97 7.643 12.288 1.329 49.816-25.26 152.77-6.314 24.576-12.96 48.155-14.623 52.14-4.985 10.96 1.33 12.62 12.962 3.654 9.97-7.97 14.623-18.266 18.28-40.85 8.64-55.13 30.908-126.865 45.863-148.784 3.989-5.978 5.318-10.627 3.324-12.62-1.994-1.992-6.647 1.66-12.63 9.964-4.985 7.638-10.302 12.62-11.632 11.955-1.661-.996-3.655-7.638-4.985-14.612-2.326-14.281-9.638-26.237-12.63-21.587zM362.26 462.133c-42.872 12.953-42.54 12.953-49.852 26.569-5.982 12.288-10.303 41.846-5.65 41.846 1.33 0 7.977-7.307 14.956-16.606 14.623-19.262 41.876-39.52 64.476-47.491 8.973-2.99 15.952-7.307 15.952-9.631 0-5.978-3.655-5.314-39.881 5.313zm152.216-7.638c-2.658 2.657 2.992 11.292 7.645 11.292 10.302 0 69.46 48.487 69.46 57.122 0 1.329 2.327 2.657 4.986 2.657 4.32 0 6.647-6.974 8.973-29.558.997-7.306-2.659-9.963-30.576-23.911-30.576-15.61-55.502-22.916-60.488-17.602z"/><path d="M283.494 536.193c-4.653 14.281-5.982 28.23-5.982 74.06 0 35.536 1.329 58.784 3.655 62.769 3.656 5.978 19.609 13.616 37.556 17.602 5.982 1.66 7.644.996 5.982-2.657-15.62-35.868-18.611-47.16-20.606-77.381-1.661-19.595-1.329-32.215.665-31.55 11.632 4.98 46.197 38.524 59.158 57.786 19.941 29.558 60.82 111.92 63.147 127.53 1.661 9.63 10.635 42.177 19.94 72.399 2.327 7.306 7.977 4.65 10.303-4.65 3.656-16.937 17.283-52.14 30.577-80.702 17.282-37.528 22.6-49.816 25.59-59.78 9.639-33.542 41.212-74.391 70.79-91.66l13.96-8.304v22.916c0 15.609-2.66 31.218-8.31 48.488-4.652 13.948-8.308 26.236-8.308 26.9 0 .997 7.976-2.324 17.947-7.306 18.28-8.635 18.28-8.967 21.603-29.226 7.644-42.51.997-126.2-9.97-133.175-1.663-.996-5.318 3.321-7.977 9.964-6.647 15.94-31.906 39.852-59.49 56.79-12.962 7.638-24.262 15.941-25.924 18.598-1.33 2.657-11.632 23.247-22.267 46.163-19.277 39.853-26.588 58.119-34.232 82.695l-3.324 11.623-6.314-8.302c-3.324-4.318-6.315-8.967-6.315-10.628 0-4.317-26.588-66.09-41.876-97.307-14.623-30.222-21.603-38.193-37.888-42.178-13.959-3.653-49.188-32.879-61.485-51.477-6.647-9.299-12.296-17.27-12.961-17.27-.997 0-4.32 7.971-7.644 17.27z"/><path d="M327.032 671.693c1.329 4.65 3.323 12.288 4.32 17.27 1.662 8.635.997 9.299-9.306 9.299-6.314-.332-14.955-2.325-19.608-4.982-4.653-2.656-10.303-4.65-12.297-4.981-6.98 0-4.653 9.63 3.323 13.616 21.27 11.624 59.158 57.787 82.09 100.96 16.618 31.551 19.61 39.522 24.594 69.08 1.994 12.287 4.986 22.915 6.647 23.247 1.33.332 7.312-5.646 12.962-13.617l10.303-14.28-19.609-38.857c-10.635-21.255-24.926-53.137-31.573-70.407-13.294-35.867-36.226-78.71-46.861-88.34l-7.312-6.31 2.327 8.302zm232.976 15.609c-4.985 26.237-25.258 69.079-53.84 112.917-9.638 15.277-17.615 28.561-17.615 29.558 0 .996-7.311 12.288-16.617 24.908-8.974 12.62-16.618 23.58-16.618 24.244 0 .996 6.98 8.302 15.62 16.605l15.954 14.613 5.317-23.58c14.956-62.104 67.8-145.795 118.649-186.644 30.908-24.909 25.923-32.547-7.977-12.953-18.611 10.96-27.252 10.296-31.573-1.992-4.985-13.285-8.309-12.62-11.3 2.324zm-279.505 34.54c.997 7.97 2.658 30.886 3.656 50.812.997 21.255 3.323 38.525 5.982 41.181 1.994 2.657 14.623 13.285 27.252 23.248 23.597 18.598 44.535 39.189 53.841 53.137 5.982 8.635 10.968 9.631 10.968 1.329 0-11.956-13.627-40.185-32.238-67.418-22.6-32.547-31.574-47.824-42.873-72.732-19.609-43.838-30.577-55.462-26.588-29.557z"/><path d="M605.208 717.856c-5.318 5.646-12.63 19.263-16.618 30.554-6.647 19.927-23.596 47.824-46.529 76.053-6.979 8.303-14.623 18.93-17.614 23.58-6.98 10.96-16.285 42.177-13.294 44.17 1.33.664 8.973-6.974 17.282-17.27 8.309-10.295 26.588-27.897 41.211-38.856 33.568-25.905 41.876-40.85 45.2-83.027 1.33-16.274 3.656-32.215 4.653-35.204 4.32-10.295-4.653-10.295-14.291 0zM547.38 869.297c-12.298 11.956-22.268 23.248-22.268 24.909 0 4.649 9.97 19.926 12.961 19.926 1.33 0 5.65-6.974 9.97-15.941 4.321-8.635 11.965-22.251 17.615-30.222 15.62-23.248 6.315-22.583-18.279 1.328zM436.707 904.5c-13.294 13.285-31.906 17.603-47.194 10.96-6.314-2.656-12.297-3.985-12.961-3.32-3.324 2.988 2.658 14.28 14.623 27.564 6.98 7.307 15.62 18.598 19.276 24.908 5.982 9.964 8.974 11.292 27.585 13.949 28.582 3.985 48.856-3.321 53.508-19.594 3.989-14.613 15.953-31.55 22.268-31.55 2.659 0 4.653-2.325 4.653-4.982 0-3.654-4.32-4.982-17.615-4.982-14.29 0-20.605-1.993-35.229-11.624-9.638-6.31-17.947-11.623-18.279-11.623-.332 0-4.985 4.649-10.635 10.295z"/></g><path d="M907.646 145.635c0 3.653.997 4.65 1.994 1.992.997-2.324.664-5.313-.333-6.31-.997-1.328-1.994.665-1.661 4.318zm-1.995 33.543c-11.964 24.908-35.893 94.318-33.234 96.643 2.326 2.325 14.623-19.594 21.935-39.189 7.976-20.922 20.273-66.753 18.279-68.746-.665-.664-3.988 4.317-6.98 11.292z" fill="#FFF"/></g></svg>